<mxfile host="app.diagrams.net" modified="2024-03-11T02:34:26.698Z" agent="Mozilla/5.0 (Macintosh; Intel Mac OS X 10_15_7) AppleWebKit/537.36 (KHTML, like Gecko) Chrome/122.0.0.0 Safari/537.36" etag="POBzJL57KdARa7HAcrBD" version="23.1.6" type="github">
  <diagram name="Page-1" id="dc7iUbl5KWSRdTPYS_an">
    <mxGraphModel dx="1679" dy="798" grid="1" gridSize="10" guides="1" tooltips="1" connect="1" arrows="1" fold="1" page="1" pageScale="1" pageWidth="827" pageHeight="1169" math="0" shadow="0">
      <root>
        <mxCell id="0" />
        <mxCell id="1" parent="0" />
        <mxCell id="hnzvepVFJ6D69399of4t-2" value="Actor" style="shape=umlActor;verticalLabelPosition=bottom;verticalAlign=top;html=1;outlineConnect=0;" vertex="1" parent="1">
          <mxGeometry x="290" y="420" width="30" height="60" as="geometry" />
        </mxCell>
        <mxCell id="hnzvepVFJ6D69399of4t-4" value="web 框架" style="ellipse;whiteSpace=wrap;html=1;" vertex="1" parent="1">
          <mxGeometry x="490" y="170" width="140" height="90" as="geometry" />
        </mxCell>
        <mxCell id="hnzvepVFJ6D69399of4t-5" value="数据库" style="ellipse;whiteSpace=wrap;html=1;" vertex="1" parent="1">
          <mxGeometry x="495" y="280" width="130" height="80" as="geometry" />
        </mxCell>
        <mxCell id="hnzvepVFJ6D69399of4t-6" value="缓存" style="ellipse;whiteSpace=wrap;html=1;" vertex="1" parent="1">
          <mxGeometry x="495" y="400" width="130" height="80" as="geometry" />
        </mxCell>
        <mxCell id="hnzvepVFJ6D69399of4t-7" value="CI/CD" style="ellipse;whiteSpace=wrap;html=1;" vertex="1" parent="1">
          <mxGeometry x="495" y="510" width="130" height="90" as="geometry" />
        </mxCell>
        <mxCell id="hnzvepVFJ6D69399of4t-10" value="数据结构和算法" style="ellipse;whiteSpace=wrap;html=1;" vertex="1" parent="1">
          <mxGeometry x="490" y="640" width="140" height="80" as="geometry" />
        </mxCell>
        <mxCell id="hnzvepVFJ6D69399of4t-12" value="AI" style="ellipse;whiteSpace=wrap;html=1;" vertex="1" parent="1">
          <mxGeometry x="487.5" y="760" width="145" height="80" as="geometry" />
        </mxCell>
      </root>
    </mxGraphModel>
  </diagram>
</mxfile>
